<?xml version="1.0" encoding="utf-8"?>
<!-- Generator: Adobe Illustrator 23.0.3, SVG Export Plug-In . SVG Version: 6.00 Build 0)  -->
<svg version="1.1" id="Layer_1" focusable="false" xmlns="http://www.w3.org/2000/svg" xmlns:xlink="http://www.w3.org/1999/xlink"
	 x="0px" y="0px" viewBox="0 0 891 792" style="enable-background:new 0 0 891 792;" xml:space="preserve">
<style type="text/css">
	.st0{fill:#666666;}
</style>
<path class="st0" d="M685.5,172h-480c-26.5,0-48,21.5-48,48v352c0,26.5,21.5,48,48,48h480c26.5,0,48-21.5,48-48V220
	C733.5,193.5,712,172,685.5,172z M333.5,268c35.3,0,64,28.7,64,64s-28.7,64-64,64s-64-28.7-64-64S298.2,268,333.5,268z M445.5,504.8
	c0,10.6-10,19.2-22.4,19.2H243.9c-12.4,0-22.4-8.6-22.4-19.2v-19.2c0-31.8,30.1-57.6,67.2-57.6h5c12.3,5.1,25.7,8,39.8,8
	s27.6-2.9,39.8-8h5c37.1,0,67.2,25.8,67.2,57.6V504.8z M669.5,452c0,4.4-3.6,8-8,8h-144c-4.4,0-8-3.6-8-8v-16c0-4.4,3.6-8,8-8h144
	c4.4,0,8,3.6,8,8V452z M669.5,388c0,4.4-3.6,8-8,8h-144c-4.4,0-8-3.6-8-8v-16c0-4.4,3.6-8,8-8h144c4.4,0,8,3.6,8,8V388z M669.5,324
	c0,4.4-3.6,8-8,8h-144c-4.4,0-8-3.6-8-8v-16c0-4.4,3.6-8,8-8h144c4.4,0,8,3.6,8,8V324z"/>
</svg>
