<?xml version="1.0" encoding="utf-8"?>
<!-- Generator: Adobe Illustrator 23.0.3, SVG Export Plug-In . SVG Version: 6.00 Build 0)  -->
<svg version="1.1" id="Layer_1" focusable="false" xmlns="http://www.w3.org/2000/svg" xmlns:xlink="http://www.w3.org/1999/xlink"
	 x="0px" y="0px" viewBox="0 0 792 792" style="enable-background:new 0 0 792 792;" xml:space="preserve">
<style type="text/css">
	.st0{fill:#666666;}
</style>
<path class="st0" d="M604,252h-80v-48c0-26.5-21.5-48-48-48H316c-26.5,0-48,21.5-48,48v48h-80c-26.5,0-48,21.5-48,48v288
	c0,26.5,21.5,48,48,48h416c26.5,0,48-21.5,48-48V300C652,273.5,630.5,252,604,252z M332,220h128v32H332V220z M492,468
	c0,4.4-3.6,8-8,8h-56v56c0,4.4-3.6,8-8,8h-48c-4.4,0-8-3.6-8-8v-56h-56c-4.4,0-8-3.6-8-8v-48c0-4.4,3.6-8,8-8h56v-56
	c0-4.4,3.6-8,8-8h48c4.4,0,8,3.6,8,8v56h56c4.4,0,8,3.6,8,8V468z"/>
</svg>
