<?xml version="1.0" encoding="utf-8"?>
<!-- Generator: Adobe Illustrator 23.0.3, SVG Export Plug-In . SVG Version: 6.00 Build 0)  -->
<svg version="1.1" id="Layer_1" focusable="false" xmlns="http://www.w3.org/2000/svg" xmlns:xlink="http://www.w3.org/1999/xlink"
	 x="0px" y="0px" viewBox="0 0 693 792" style="enable-background:new 0 0 693 792;" xml:space="preserve">
<style type="text/css">
	.st0{fill:#666666;}
</style>
<path class="st0" d="M558.5,620h-20V164c0-13.3-10.7-24-24-24h-336c-13.3,0-24,10.7-24,24v456h-20c-6.6,0-12,5.4-12,12v20h448v-20
	C570.5,625.4,565.1,620,558.5,620z M250.5,216c0-6.6,5.4-12,12-12h40c6.6,0,12,5.4,12,12v40c0,6.6-5.4,12-12,12h-40
	c-6.6,0-12-5.4-12-12V216z M250.5,312c0-6.6,5.4-12,12-12h40c6.6,0,12,5.4,12,12v40c0,6.6-5.4,12-12,12h-40c-6.6,0-12-5.4-12-12V312
	z M302.5,460h-40c-6.6,0-12-5.4-12-12v-40c0-6.6,5.4-12,12-12h40c6.6,0,12,5.4,12,12v40C314.5,454.6,309.1,460,302.5,460z
	 M378.5,620h-64v-84c0-6.6,5.4-12,12-12h40c6.6,0,12,5.4,12,12V620z M442.5,448c0,6.6-5.4,12-12,12h-40c-6.6,0-12-5.4-12-12v-40
	c0-6.6,5.4-12,12-12h40c6.6,0,12,5.4,12,12V448z M442.5,352c0,6.6-5.4,12-12,12h-40c-6.6,0-12-5.4-12-12v-40c0-6.6,5.4-12,12-12h40
	c6.6,0,12,5.4,12,12V352z M442.5,256c0,6.6-5.4,12-12,12h-40c-6.6,0-12-5.4-12-12v-40c0-6.6,5.4-12,12-12h40c6.6,0,12,5.4,12,12V256
	z"/>
</svg>
