<?xml version="1.0" encoding="utf-8"?>
<!-- Generator: Adobe Illustrator 23.0.3, SVG Export Plug-In . SVG Version: 6.00 Build 0)  -->
<svg version="1.1" id="Layer_1" focusable="false" xmlns="http://www.w3.org/2000/svg" xmlns:xlink="http://www.w3.org/1999/xlink"
	 x="0px" y="0px" viewBox="0 0 693.2 792.2" style="enable-background:new 0 0 693.2 792.2;" xml:space="preserve">
<style type="text/css">
	.st0{fill:#666666;}
</style>
<path class="st0" d="M122.7,634.2c-1.1,9.5,6.3,17.8,15.9,17.8l32.3,0.1c8.1,0,14.9-5.9,16-13.9c0.7-4.9,1.8-11.1,3.4-18.1h312.3
	c1.6,6.9,2.9,13.2,3.5,18.1c1.1,8,7.9,14,16,13.9l32.3-0.1c9.6,0,17.1-8.3,15.9-17.8c-4.6-37.9-25.6-129-118.9-207.7
	c-17.6,12.4-37.1,24.2-58.5,35.4c6.2,4.6,11.4,9.4,17,14.2H282.3c21.3-18.1,47-35.6,78.7-51.4C533.1,339.2,564.7,205.9,570.5,158
	c1.1-9.5-6.3-17.8-15.9-17.8l-32.4-0.1c-8.1,0-14.9,5.9-16,13.9c-0.7,4.9-1.8,11.1-3.4,18.1H190.4c-1.6-7-2.7-13.1-3.4-18.1
	c-1.1-8-7.9-14-16-13.9l-32.3,0.1c-9.6,0-17.1,8.3-16,17.8c5.2,42.9,31.3,153.9,159.9,238.1C154.1,480.3,127.9,591.3,122.7,634.2z
	 M346.6,359.7c-25.1-13.7-46.4-28.4-64.3-43.6h128.5C393,331.3,371.7,346.1,346.6,359.7L346.6,359.7z M477.7,236.1
	c-5.8,10.4-12.8,21.1-21,32H236.6c-8.3-10.9-15.3-21.6-21-32H477.7z M215.5,556.1c5.8-10.4,12.8-21.1,21-32h219.4
	c8.3,10.9,15.4,21.6,21.2,32H215.5z"/>
</svg>
