<?xml version="1.0" encoding="utf-8"?>
<!-- Generator: Adobe Illustrator 23.0.3, SVG Export Plug-In . SVG Version: 6.00 Build 0)  -->
<svg version="1.1" id="Layer_1" focusable="false" xmlns="http://www.w3.org/2000/svg" xmlns:xlink="http://www.w3.org/1999/xlink"
	 x="0px" y="0px" viewBox="0 0 544.5 792" style="enable-background:new 0 0 544.5 792;" xml:space="preserve">
<style type="text/css">
	.st0{fill:#666666;}
</style>
<path class="st0" d="M192.3,594.3c0,6.3,1.9,12.5,5.4,17.7l17.1,25.7c5.9,8.9,15.9,14.3,26.6,14.3h61.7c10.7,0,20.7-5.4,26.6-14.3
	l17.1-25.7c3.5-5.2,5.4-11.4,5.4-17.7l0-38.3h-160C192.3,556,192.3,594.3,192.3,594.3z M96.2,316c0,44.4,16.4,84.9,43.6,115.8
	c16.5,18.9,42.4,58.2,52.2,91.4c0,0.3,0.1,0.5,0.1,0.8h160.2c0-0.3,0.1-0.5,0.1-0.8c9.9-33.2,35.7-72.6,52.2-91.5
	c27.1-30.9,43.6-71.4,43.6-115.8c0-97.4-79.1-176.3-176.5-176C169.7,140.3,96.2,223,96.2,316z M272.2,236c-44.1,0-80,35.9-80,80
	c0,8.8-7.2,16-16,16s-16-7.2-16-16c0-61.8,50.2-112,112-112c8.8,0,16,7.2,16,16S281.1,236,272.2,236z"/>
</svg>
